<?xml version="1.0" encoding="utf-8"?>
<!-- Generator: Adobe Illustrator 24.0.1, SVG Export Plug-In . SVG Version: 6.00 Build 0)  -->
<svg version="1.1" id="Layer_1" xmlns="http://www.w3.org/2000/svg" xmlns:xlink="http://www.w3.org/1999/xlink" x="0px" y="0px"
	 viewBox="0 0 512 512" style="enable-background:new 0 0 512 512;" xml:space="preserve">
<style type="text/css">
	.st0{fill:#3B00D4;}
	.st1{fill:#00117F;}
	.st2{fill:#FFFFFF;}
	.st3{fill:#FFE6B3;}
</style>
<path class="st0" d="M256,512c-68.5,0-132.8-26.6-181.1-74.9C26.6,388.8,0,324.5,0,256c0-68.5,26.6-132.8,74.9-181.1
	C123.2,26.6,187.5,0,256,0c68.5,0,132.8,26.6,181.1,74.9C485.4,123.2,512,187.5,512,256c0,68.5-26.6,132.8-74.9,181.1l0,0l0,0
	C388.8,485.4,324.5,512,256,512z"/>
<path class="st1" d="M256,0v512c68.5,0,132.8-26.6,181.1-74.9C485.4,388.8,512,324.5,512,256c0-68.5-26.6-132.8-74.9-181.1
	C388.8,26.6,324.5,0,256,0z"/>
<path class="st2" d="M356.1,395.1H155.6c-6.5,0-12.3-3.7-15.1-9.5c-2.8-5.8-1.9-12.7,2.2-17.7l91.6-111.9l-91.6-111.9
	c-4.1-5-4.9-11.9-2.2-17.7c2.8-5.8,8.6-9.5,15.1-9.5h200.5c9.2,0,16.7,7.5,16.7,16.7v33.4c0,9.2-7.5,16.7-16.7,16.7
	s-16.7-7.5-16.7-16.7V150H190.9l77.9,95.2c5,6.1,5,15,0,21.2l-77.9,95.2h148.5v-16.7c0-9.2,7.5-16.7,16.7-16.7s16.7,7.5,16.7,16.7
	v33.4C372.8,387.6,365.3,395.1,356.1,395.1z"/>
<g>
	<path class="st3" d="M372.8,378.3v-33.4c0-9.2-7.5-16.7-16.7-16.7s-16.7,7.5-16.7,16.7v16.7h-83.5v33.4h100.2
		C365.3,395.1,372.8,387.6,372.8,378.3z"/>
	<path class="st3" d="M268.8,245.3l-12.9-15.8v52.8l12.9-15.8C273.8,260.3,273.8,251.4,268.8,245.3z"/>
	<path class="st3" d="M356.1,116.6H255.8V150h83.5v16.7c0,9.2,7.5,16.7,16.7,16.7s16.7-7.5,16.7-16.7v-33.4
		C372.8,124.1,365.3,116.6,356.1,116.6z"/>
</g>
</svg>
